<svg xmlns="http://www.w3.org/2000/svg" width="780" height="353.275" viewBox="0 0 780 353.275"><path fill="#231F20" d="M396.593 150.707c3.425 7.343 5.463 15.125 6.203 23.216-40.69-41.027-135.54-41.975-228.523 1.382C81.29 218.665 21.05 291.935 26.32 349.475c-5.72-5.77-10.37-12.332-13.796-19.675-27.773-59.56 35.69-147.93 141.75-197.387 106.056-49.455 214.547-41.266 242.32 18.294"/><path fill="#231F20" d="M196.56 317.07h-.392l-35.07-101.124c-2.144-6.04-3.702-11.108-10.523-11.108-4.678 0-7.6 3.508-7.6 7.014 0 2.338.39 4.286 1.168 6.627l42.285 118.076c1.947 5.65 4.09 9.352 9.936 9.352s7.99-3.702 9.937-9.352l42.287-118.077c.778-2.342 1.167-4.29 1.167-6.628 0-3.506-2.923-7.014-7.6-7.014-6.82 0-8.38 5.067-10.52 11.108L196.56 317.07zM336.055 299.73h-53.78l26.693-75.015h.392l26.695 75.014zm-59.04 14.808h64.297l8.964 24.943c1.366 3.703 3.702 6.428 8.38 6.428 4.48 0 8.184-2.725 8.184-7.21 0-2.337-1.755-6.817-2.338-8.57l-43.06-114.768c-2.146-6.042-5.655-10.522-12.278-10.522s-10.13 4.48-12.275 10.522l-43.062 114.77c-.586 1.75-2.34 6.23-2.34 8.57 0 4.483 3.704 7.208 8.184 7.208 4.677 0 7.015-2.725 8.38-6.427l8.964-24.942zM406.954 213.995c0-5.65-3.312-9.157-8.572-9.157s-8.574 3.508-8.574 9.157v121.392c0 5.262 2.73 9.352 9.157 9.352h44.622c4.87 0 8.378-2.534 8.378-7.988 0-5.458-3.507-7.988-8.378-7.988h-36.633v-114.77zM476.88 336.752c0 5.653 3.316 9.156 8.575 9.156 5.26 0 8.575-3.503 8.575-9.156v-114.77h25.915c4.87 0 8.378-2.533 8.378-7.987 0-5.455-3.51-7.99-8.378-7.99h-68.977c-4.87 0-8.38 2.535-8.38 7.99 0 5.454 3.51 7.988 8.38 7.988h25.913v114.77zM566.882 283.363h37.608c4.868 0 8.378-2.533 8.378-7.99 0-5.455-3.51-7.988-8.378-7.988h-37.608v-45.402h41.31c4.868 0 8.377-2.534 8.377-7.988 0-5.455-3.51-7.99-8.38-7.99h-49.297c-6.43 0-9.157 4.096-9.157 9.355v120.028c0 5.262 2.727 9.352 9.157 9.352h49.298c4.87 0 8.38-2.534 8.38-7.988 0-5.457-3.51-7.987-8.38-7.987h-41.308v-45.402zM663.116 220.817h22.996c15.975 0 26.108 10.912 26.108 23.77 0 17.926-7.794 25.526-25.718 25.526h-23.386v-49.296zm0 63.132l53.002 58.06c1.947 2.143 4.288 3.898 7.792 3.898 4.287 0 7.795-2.92 7.795-6.623 0-3.12-.975-5.258-3.31-7.792l-44.232-48.52 7.406-.193c20.65-.782 37.796-11.306 37.796-39.36 0-22.603-20.65-37.414-42.474-37.414H655.13c-6.43 0-9.158 4.095-9.158 9.354v121.392c0 5.653 3.312 9.156 8.575 9.156 5.26 0 8.57-3.503 8.57-9.156V283.95zM775.89 213.995c0-5.65-3.312-9.157-8.572-9.157-5.262 0-8.574 3.508-8.574 9.157v122.757c0 5.653 3.312 9.156 8.574 9.156 5.26 0 8.572-3.503 8.572-9.156V213.995z"/><path fill="#FFCF46" d="M7.402 67.96C7.402 30.427 37.828 0 75.362 0c37.537 0 67.964 30.426 67.964 67.96 0 37.535-30.427 67.962-67.964 67.962-37.534 0-67.96-30.427-67.96-67.96m90.96-63.03c-14.726 6.154-16.724 30.754-16.724 37.65 0 8.518 4.038 33.305 25.8 36.61-3.06.466-6.227.71-9.47.71-20.383 0-37.774-9.642-44.568-23.198-.056.914-.084 1.833-.084 2.756 0 23.092 11.852 42.545 35.96 42.545 22.46 0 35.96-19.453 35.96-42.545 0-19.58-10.855-45.71-26.875-54.528"/></svg>