<svg xmlns="http://www.w3.org/2000/svg" style="display:none"><symbol id="icon-angle-down" viewBox="0 0 18 28"><title>angle-down</title><path d="M16.797 11.5a.54.54 0 0 1-.156.359L9.36 19.14c-.094.094-.234.156-.359.156s-.266-.063-.359-.156l-7.281-7.281c-.094-.094-.156-.234-.156-.359s.063-.266.156-.359l.781-.781a.508.508 0 0 1 .359-.156.54.54 0 0 1 .359.156l6.141 6.141 6.141-6.141c.094-.094.234-.156.359-.156s.266.063.359.156l.781.781a.536.536 0 0 1 .156.359z"/></symbol><symbol id="icon-bars" viewBox="0 0 24 28"><path d="M24 21v2c0 .547-.453 1-1 1H1c-.547 0-1-.453-1-1v-2c0-.547.453-1 1-1h22c.547 0 1 .453 1 1zm0-8v2c0 .547-.453 1-1 1H1c-.547 0-1-.453-1-1v-2c0-.547.453-1 1-1h22c.547 0 1 .453 1 1zm0-8v2c0 .547-.453 1-1 1H1c-.547 0-1-.453-1-1V5c0-.547.453-1 1-1h22c.547 0 1 .453 1 1z"/></symbol><symbol id="icon-chain" viewBox="0 0 26 28"><title>chain</title><path d="M22.75 19c0-.406-.156-.781-.438-1.062l-3.25-3.25A1.516 1.516 0 0 0 18 14.25c-.453 0-.812.172-1.125.5.516.516 1.125.953 1.125 1.75a1.5 1.5 0 0 1-1.5 1.5c-.797 0-1.234-.609-1.75-1.125-.328.313-.516.672-.516 1.141 0 .391.156.781.438 1.062l3.219 3.234c.281.281.672.422 1.062.422s.781-.141 1.062-.406l2.297-2.281A1.48 1.48 0 0 0 22.75 19zM11.766 7.984a1.51 1.51 0 0 0-.438-1.062L8.109 3.688c-.281-.281-.672-.438-1.062-.438s-.781.156-1.062.422L3.688 5.953a1.484 1.484 0 0 0 0 2.109l3.25 3.25A1.5 1.5 0 0 0 8 11.734c.453 0 .812-.156 1.125-.484C8.609 10.734 8 10.297 8 9.5A1.5 1.5 0 0 1 9.5 8c.797 0 1.234.609 1.75 1.125.328-.313.516-.672.516-1.141zM25.75 19a4.468 4.468 0 0 1-1.328 3.172l-2.297 2.281a4.466 4.466 0 0 1-3.172 1.297 4.44 4.44 0 0 1-3.187-1.328l-3.219-3.234a4.466 4.466 0 0 1-1.297-3.172c0-1.234.5-2.406 1.375-3.266l-1.375-1.375A4.539 4.539 0 0 1 8 14.75a4.514 4.514 0 0 1-3.187-1.313l-3.25-3.25A4.454 4.454 0 0 1 .25 7c0-1.188.484-2.344 1.328-3.172l2.297-2.281A4.466 4.466 0 0 1 7.047.25a4.44 4.44 0 0 1 3.187 1.328l3.219 3.234a4.466 4.466 0 0 1 1.297 3.172c0 1.234-.5 2.406-1.375 3.266l1.375 1.375A4.539 4.539 0 0 1 18 11.25c1.188 0 2.344.469 3.187 1.313l3.25 3.25A4.454 4.454 0 0 1 25.75 19z"/></symbol><symbol id="icon-check" viewBox="0 0 28 28"><title>check</title><path d="M26.109 8.844c0 .391-.156.781-.438 1.062L12.233 23.344c-.281.281-.672.438-1.062.438s-.781-.156-1.062-.438l-7.781-7.781c-.281-.281-.438-.672-.438-1.062s.156-.781.438-1.062l2.125-2.125c.281-.281.672-.438 1.062-.438s.781.156 1.062.438l4.594 4.609 10.25-10.266c.281-.281.672-.438 1.062-.438s.781.156 1.062.438l2.125 2.125c.281.281.438.672.438 1.062z"/></symbol><symbol id="icon-envelope-o" viewBox="0 0 28 28"><title>envelope-o</title><path d="M26 23.5v-12a8.408 8.408 0 0 1-1.078 1.031c-2.234 1.719-4.484 3.469-6.656 5.281-1.172.984-2.625 2.188-4.25 2.188h-.031c-1.625 0-3.078-1.203-4.25-2.188-2.172-1.813-4.422-3.563-6.656-5.281A8.411 8.411 0 0 1 2.001 11.5v12c0 .266.234.5.5.5h23c.266 0 .5-.234.5-.5zm0-16.422C26 6.687 26.094 6 25.5 6h-23c-.266 0-.5.234-.5.5 0 1.781.891 3.328 2.297 4.438a980.43 980.43 0 0 1 6.266 4.953c.828.672 2.328 2.109 3.422 2.109h.031c1.094 0 2.594-1.437 3.422-2.109a946.207 946.207 0 0 1 6.266-4.953c1.016-.797 2.297-2.531 2.297-3.859zm2-.578v17c0 1.375-1.125 2.5-2.5 2.5h-23A2.507 2.507 0 0 1 0 23.5v-17C0 5.125 1.125 4 2.5 4h23C26.875 4 28 5.125 28 6.5z"/></symbol><symbol id="icon-facebook" viewBox="0 0 16 28"><title>facebook</title><path d="M14.984.187v4.125h-2.453c-1.922 0-2.281.922-2.281 2.25v2.953h4.578l-.609 4.625H10.25v11.859H5.469V14.14H1.485V9.515h3.984V6.109C5.469 2.156 7.891 0 11.422 0c1.687 0 3.141.125 3.563.187z"/></symbol><symbol id="icon-group" viewBox="0 0 30 28"><title>group</title><path d="M9.266 14a5.532 5.532 0 0 0-4.141 2H3.031C1.468 16 0 15.25 0 13.516 0 12.25-.047 8 1.937 8c.328 0 1.953 1.328 4.062 1.328.719 0 1.406-.125 2.078-.359A7.624 7.624 0 0 0 7.999 10c0 1.422.453 2.828 1.266 4zM26 23.953C26 26.484 24.328 28 21.828 28H8.172C5.672 28 4 26.484 4 23.953 4 20.422 4.828 15 9.406 15c.531 0 2.469 2.172 5.594 2.172S20.063 15 20.594 15C25.172 15 26 20.422 26 23.953zM10 4c0 2.203-1.797 4-4 4S2 6.203 2 4s1.797-4 4-4 4 1.797 4 4zm11 6c0 3.313-2.688 6-6 6s-6-2.688-6-6 2.688-6 6-6 6 2.688 6 6zm9 3.516C30 15.25 28.531 16 26.969 16h-2.094a5.532 5.532 0 0 0-4.141-2A7.066 7.066 0 0 0 22 10a7.6 7.6 0 0 0-.078-1.031A6.258 6.258 0 0 0 24 9.328C26.109 9.328 27.734 8 28.062 8c1.984 0 1.937 4.25 1.937 5.516zM28 4c0 2.203-1.797 4-4 4s-4-1.797-4-4 1.797-4 4-4 4 1.797 4 4z"/></symbol><symbol id="icon-heart" viewBox="0 0 28 28"><title>heart</title><path d="M14 26c-.25 0-.5-.094-.688-.281l-9.75-9.406c-.125-.109-3.563-3.25-3.563-7C-.001 4.735 2.796 2 7.468 2c2.734 0 5.297 2.156 6.531 3.375C15.233 4.156 17.796 2 20.53 2c4.672 0 7.469 2.734 7.469 7.313 0 3.75-3.437 6.891-3.578 7.031l-9.734 9.375a.972.972 0 0 1-.688.281z"/></symbol><symbol id="icon-instagram" viewBox="0 0 24 28"><title>instagram</title><path d="M16 14c0-2.203-1.797-4-4-4s-4 1.797-4 4 1.797 4 4 4 4-1.797 4-4zm2.156 0c0 3.406-2.75 6.156-6.156 6.156S5.844 17.406 5.844 14 8.594 7.844 12 7.844s6.156 2.75 6.156 6.156zm1.688-6.406c0 .797-.641 1.437-1.437 1.437S16.97 8.39 16.97 7.594s.641-1.437 1.437-1.437 1.437.641 1.437 1.437zM12 4.156c-1.75 0-5.5-.141-7.078.484-.547.219-.953.484-1.375.906s-.688.828-.906 1.375c-.625 1.578-.484 5.328-.484 7.078s-.141 5.5.484 7.078c.219.547.484.953.906 1.375s.828.688 1.375.906c1.578.625 5.328.484 7.078.484s5.5.141 7.078-.484c.547-.219.953-.484 1.375-.906s.688-.828.906-1.375c.625-1.578.484-5.328.484-7.078s.141-5.5-.484-7.078c-.219-.547-.484-.953-.906-1.375s-.828-.688-1.375-.906C17.5 4.015 13.75 4.156 12 4.156zM24 14c0 1.656.016 3.297-.078 4.953-.094 1.922-.531 3.625-1.937 5.031s-3.109 1.844-5.031 1.937c-1.656.094-3.297.078-4.953.078s-3.297.016-4.953-.078c-1.922-.094-3.625-.531-5.031-1.937S.173 20.875.08 18.953C-.014 17.297.002 15.656.002 14s-.016-3.297.078-4.953c.094-1.922.531-3.625 1.937-5.031s3.109-1.844 5.031-1.937c1.656-.094 3.297-.078 4.953-.078s3.297-.016 4.953.078c1.922.094 3.625.531 5.031 1.937s1.844 3.109 1.937 5.031C24.016 10.703 24 12.344 24 14z"/></symbol><symbol id="icon-linkedin" viewBox="0 0 24 28"><title>linkedin</title><path d="M5.453 9.766V25.25H.297V9.766h5.156zm.328-4.782c.016 1.484-1.109 2.672-2.906 2.672h-.031C1.11 7.656 0 6.468 0 4.984c0-1.516 1.156-2.672 2.906-2.672 1.766 0 2.859 1.156 2.875 2.672zM24 16.375v8.875h-5.141v-8.281c0-2.078-.75-3.5-2.609-3.5-1.422 0-2.266.953-2.641 1.875-.125.344-.172.797-.172 1.266v8.641H8.296c.063-14.031 0-15.484 0-15.484h5.141v2.25h-.031c.672-1.062 1.891-2.609 4.672-2.609 3.391 0 5.922 2.219 5.922 6.969z"/></symbol><symbol id="icon-quotes-left" viewBox="0 0 32 32"><title>quotes-left</title><path d="M7.031 14a7 7 0 1 1-7 7L0 20C0 12.268 6.268 6 14 6v4a9.934 9.934 0 0 0-7.071 2.929 10.24 10.24 0 0 0-.995 1.157A7.081 7.081 0 0 1 7.031 14zm18 0a7 7 0 1 1-7 7L18 20c0-7.732 6.268-14 14-14v4a9.934 9.934 0 0 0-7.071 2.929 10.24 10.24 0 0 0-.995 1.157A7.09 7.09 0 0 1 25.031 14z"/></symbol><symbol id="icon-search" viewBox="0 0 26 28"><title>search</title><path d="M18 13c0-3.859-3.141-7-7-7s-7 3.141-7 7 3.141 7 7 7 7-3.141 7-7zm8 13c0 1.094-.906 2-2 2a1.96 1.96 0 0 1-1.406-.594l-5.359-5.344a10.971 10.971 0 0 1-6.234 1.937c-6.078 0-11-4.922-11-11s4.922-11 11-11 11 4.922 11 11c0 2.219-.672 4.406-1.937 6.234l5.359 5.359c.359.359.578.875.578 1.406z"/></symbol><symbol id="icon-slideshare" viewBox="0 0 28 28"><title>slideshare</title><path d="M13.641 11.562c0 1.734-1.516 3.156-3.375 3.156s-3.375-1.422-3.375-3.156c0-1.75 1.516-3.156 3.375-3.156s3.375 1.406 3.375 3.156zm7.843 0c0 1.734-1.5 3.156-3.375 3.156-1.859 0-3.375-1.422-3.375-3.156 0-1.75 1.516-3.156 3.375-3.156 1.875 0 3.375 1.406 3.375 3.156zM25 14.375V3.953c0-1.797-.578-2.5-2.234-2.5H5.391c-1.734 0-2.219.594-2.219 2.5v10.516c3.703 1.937 6.875 1.594 8.609 1.531.734-.016 1.203.125 1.484.422.047.047.094.094.156.141.328.313.641.562.953.797.063-.859.547-1.406 1.844-1.359 1.766.078 5.016.422 8.781-1.625zm2.547-.078c-1 1.234-2.906 2.75-5.812 3.938 3.078 10.484-7.516 12.156-7.344 6.781 0 .094-.016-2.891-.016-5.109-.234-.047-.469-.109-.75-.172 0 2.234-.016 5.375-.016 5.281.172 5.375-10.422 3.703-7.344-6.781-2.906-1.188-4.813-2.703-5.812-3.938-.5-.75.047-1.547.875-.969.109.078.234.156.344.234V2.718c0-1.5 1.125-2.719 2.516-2.719h19.641c1.391 0 2.516 1.219 2.516 2.719v10.844l.328-.234c.828-.578 1.375.219.875.969z"/></symbol><symbol id="icon-twitter" viewBox="0 0 26 28"><title>twitter</title><path d="M25.312 6.375a10.85 10.85 0 0 1-2.531 2.609c.016.219.016.438.016.656 0 6.672-5.078 14.359-14.359 14.359-2.859 0-5.516-.828-7.75-2.266.406.047.797.063 1.219.063 2.359 0 4.531-.797 6.266-2.156a5.056 5.056 0 0 1-4.719-3.5c.313.047.625.078.953.078.453 0 .906-.063 1.328-.172a5.048 5.048 0 0 1-4.047-4.953v-.063a5.093 5.093 0 0 0 2.281.641 5.044 5.044 0 0 1-2.25-4.203c0-.938.25-1.797.688-2.547a14.344 14.344 0 0 0 10.406 5.281 5.708 5.708 0 0 1-.125-1.156 5.045 5.045 0 0 1 5.047-5.047 5.03 5.03 0 0 1 3.687 1.594 9.943 9.943 0 0 0 3.203-1.219 5.032 5.032 0 0 1-2.219 2.781c1.016-.109 2-.391 2.906-.781z"/></symbol><symbol id="icon-vimeo" viewBox="0 0 28 28"><title>vimeo</title><path d="M26.703 8.094c-.109 2.469-1.844 5.859-5.187 10.172C18.047 22.75 15.141 25 12.735 25c-1.484 0-2.734-1.375-3.75-4.109-.688-2.5-1.375-5.016-2.063-7.531-.75-2.734-1.578-4.094-2.453-4.094-.187 0-.844.391-1.984 1.188L1.282 8.923c1.25-1.109 2.484-2.234 3.719-3.313 1.656-1.469 2.922-2.203 3.766-2.281 1.984-.187 3.187 1.156 3.656 4.047.484 3.125.844 5.078 1.031 5.828.578 2.594 1.188 3.891 1.875 3.891.531 0 1.328-.828 2.406-2.516 1.062-1.687 1.625-2.969 1.703-3.844.141-1.453-.422-2.172-1.703-2.172-.609 0-1.234.141-1.891.406 1.25-4.094 3.641-6.078 7.172-5.969 2.609.078 3.844 1.781 3.687 5.094z"/></symbol><symbol id="icon-youtube" viewBox="0 0 24 28"><title>youtube</title><path d="M15.172 19.437v3.297c0 .703-.203 1.047-.609 1.047-.234 0-.469-.109-.703-.344v-4.703c.234-.234.469-.344.703-.344.406 0 .609.359.609 1.047zm5.281.016v.719h-1.406v-.719c0-.703.234-1.062.703-1.062s.703.359.703 1.062zM5.359 16.047h1.672v-1.469H2.156v1.469h1.641v8.891H5.36v-8.891zm4.5 8.891h1.391v-7.719H9.859v5.906c-.313.438-.609.656-.891.656-.187 0-.297-.109-.328-.328-.016-.047-.016-.219-.016-.547v-5.688H7.233v6.109c0 .547.047.906.125 1.141.125.391.453.578.906.578.5 0 1.031-.313 1.594-.953v.844zm6.703-2.313v-3.078c0-.719-.031-1.234-.141-1.547-.172-.578-.562-.875-1.109-.875-.516 0-1 .281-1.453.844v-3.391h-1.391v10.359h1.391v-.75c.469.578.953.859 1.453.859.547 0 .938-.297 1.109-.859.109-.328.141-.844.141-1.563zm5.282-.156v-.203h-1.422c0 .562-.016.875-.031.953-.078.375-.281.562-.625.562-.484 0-.719-.359-.719-1.078v-1.359h2.797v-1.609c0-.828-.141-1.422-.422-1.813-.406-.531-.953-.797-1.656-.797-.719 0-1.266.266-1.672.797-.297.391-.438.984-.438 1.813v2.703c0 .828.156 1.437.453 1.813.406.531.953.797 1.687.797s1.313-.281 1.687-.828a1.8 1.8 0 0 0 .328-.844c.031-.141.031-.453.031-.906zm-9.5-14.266V4.922c0-.719-.203-1.078-.672-1.078-.453 0-.672.359-.672 1.078v3.281c0 .719.219 1.094.672 1.094.469 0 .672-.375.672-1.094zm11.234 11.735c0 1.797-.016 3.719-.406 5.469-.297 1.234-1.297 2.141-2.5 2.266-2.875.328-5.781.328-8.672.328s-5.797 0-8.672-.328c-1.203-.125-2.219-1.031-2.5-2.266-.406-1.75-.406-3.672-.406-5.469 0-1.813.016-3.719.406-5.469.297-1.234 1.297-2.141 2.516-2.281 2.859-.313 5.766-.313 8.656-.313s5.797 0 8.672.313c1.203.141 2.219 1.047 2.5 2.281.406 1.75.406 3.656.406 5.469zM7.984 0h1.594L7.687 6.234v4.234H6.124V6.234c-.141-.766-.453-1.859-.953-3.313-.344-.969-.688-1.953-1.016-2.922h1.656L6.92 4.108zm5.782 5.203v2.734c0 .828-.141 1.453-.438 1.844-.391.531-.938.797-1.656.797-.703 0-1.25-.266-1.641-.797-.297-.406-.438-1.016-.438-1.844V5.203c0-.828.141-1.437.438-1.828.391-.531.938-.797 1.641-.797.719 0 1.266.266 1.656.797.297.391.438 1 .438 1.828zM19 2.672v7.797h-1.422V9.61c-.562.656-1.094.969-1.609.969-.453 0-.781-.187-.922-.578-.078-.234-.125-.609-.125-1.172V2.673h1.422v5.734c0 .328 0 .516.016.547.031.219.141.344.328.344.281 0 .578-.219.891-.672V2.673h1.422z"/></symbol></svg>